ISO-10303-21;
HEADER;
/* Generated by software containing ST-Developer
 * from STEP Tools, Inc. (www.steptools.com) 
 */

FILE_DESCRIPTION(
/* description */ (''),
/* implementation_level */ '2;1');

FILE_NAME(
/* name */ 'Embouts pattes.step',
/* time_stamp */ '2026-06-08T18:20:41+02:00',
/* author */ (''),
/* organization */ (''),
/* preprocessor_version */ 'ST-DEVELOPER v20.1',
/* originating_system */ 'Autodesk Translation Framework v15.8.0.0',
/* authorisation */ '');

FILE_SCHEMA (('AUTOMOTIVE_DESIGN { 1 0 10303 214 3 1 1 }'));
ENDSEC;

DATA;
#10=MECHANICAL_DESIGN_GEOMETRIC_PRESENTATION_REPRESENTATION('',(#13),#1043);
#11=SHAPE_REPRESENTATION_RELATIONSHIP('SRR','None',#1050,#12);
#12=ADVANCED_BREP_SHAPE_REPRESENTATION('',(#14),#1042);
#13=STYLED_ITEM('',(#1059),#14);
#14=MANIFOLD_SOLID_BREP('Corps1',#548);
#15=SPHERICAL_SURFACE('',#594,15.);
#16=TOROIDAL_SURFACE('',#582,11.4891252930761,1.);
#17=TOROIDAL_SURFACE('',#584,12.1243556529821,1.);
#18=TOROIDAL_SURFACE('',#587,11.4891252930761,1.);
#19=TOROIDAL_SURFACE('',#590,12.1243556529821,1.);
#20=B_SPLINE_CURVE_WITH_KNOTS('',3,(#837,#838,#839,#840),.UNSPECIFIED.,
 .F.,.F.,(4,4),(-0.494697719455395,-0.485109579879444),.UNSPECIFIED.);
#21=B_SPLINE_CURVE_WITH_KNOTS('',3,(#843,#844,#845,#846),.UNSPECIFIED.,
 .F.,.F.,(4,4),(-0.159976625806648,-0.150388486230696),.UNSPECIFIED.);
#22=B_SPLINE_CURVE_WITH_KNOTS('',3,(#853,#854,#855,#856,#857,#858,#859,
#860,#861,#862,#863,#864,#865,#866,#867,#868,#869,#870,#871,#872),
 .UNSPECIFIED.,.F.,.F.,(4,2,2,2,2,2,2,2,2,4),(-0.393423620270419,-0.392835151235586,
-0.355191715259766,-0.320341177412861,-0.274970723851018,-0.241408038343305,
-0.214993815089142,-0.190990687283128,-0.164421425172614,-0.15966765330936),
 .UNSPECIFIED.);
#23=B_SPLINE_CURVE_WITH_KNOTS('',3,(#873,#874,#875,#876),.UNSPECIFIED.,
 .F.,.F.,(4,4),(-0.494697719455395,-0.485109579879444),.UNSPECIFIED.);
#24=B_SPLINE_CURVE_WITH_KNOTS('',3,(#877,#878,#879,#880,#881,#882,#883,
#884,#885,#886,#887,#888,#889,#890,#891,#892,#893,#894),.UNSPECIFIED.,.F.,
 .F.,(4,2,2,2,2,2,2,2,4),(-0.305315274781229,-0.269296984953084,-0.239963543017971,
-0.210756563666493,-0.174352427087843,-0.124887017733074,-0.0657824522358196,
0.,0.00084044402103004),.UNSPECIFIED.);
#25=B_SPLINE_CURVE_WITH_KNOTS('',3,(#899,#900,#901,#902,#903,#904,#905,
#906,#907,#908,#909,#910,#911,#912,#913,#914,#915,#916),.UNSPECIFIED.,.F.,
 .F.,(4,2,2,2,2,2,2,2,4),(-0.390547311642094,-0.3900311158004,-0.331454056314101,
-0.282438322240452,-0.246530421539059,-0.21907832567592,-0.194815636432765,
-0.169126568025763,-0.159531247074634),.UNSPECIFIED.);
#26=B_SPLINE_CURVE_WITH_KNOTS('',3,(#921,#922,#923,#924,#925,#926,#927,
#928,#929,#930,#931,#932,#933,#934,#935,#936,#937,#938,#939,#940),
 .UNSPECIFIED.,.F.,.F.,(4,2,2,2,2,2,2,2,2,4),(-0.393423620270419,-0.392835151235586,
-0.355191715259766,-0.320341177412861,-0.274970723851018,-0.241408038343305,
-0.214993815089142,-0.190990687283128,-0.164421425172614,-0.15966765330936),
 .UNSPECIFIED.);
#27=B_SPLINE_CURVE_WITH_KNOTS('',3,(#943,#944,#945,#946),.UNSPECIFIED.,
 .F.,.F.,(4,4),(-0.159976625806648,-0.150388486230696),.UNSPECIFIED.);
#28=B_SPLINE_CURVE_WITH_KNOTS('',3,(#958,#959,#960,#961,#962,#963,#964,
#965,#966,#967,#968,#969,#970,#971,#972,#973,#974,#975),.UNSPECIFIED.,.F.,
 .F.,(4,2,2,2,2,2,2,2,4),(0.,0.133885717670684,0.267771435341368,0.379678008407856,
0.491584581474344,0.603491154540831,0.715397727607319,0.849283445278003,
0.983169162948687),.UNSPECIFIED.);
#29=B_SPLINE_CURVE_WITH_KNOTS('',3,(#976,#977,#978,#979,#980,#981,#982,
#983,#984,#985,#986,#987,#988,#989,#990,#991,#992,#993),.UNSPECIFIED.,.F.,
 .F.,(4,2,2,2,2,2,2,2,4),(0.983169162948687,1.12223931398267,1.26130946501664,
1.37403110365851,1.48675274230037,1.59947438094224,1.7121960195841,1.85126617061808,
1.99033632165206),.UNSPECIFIED.);
#30=FACE_BOUND('',#106,.T.);
#31=FACE_BOUND('',#115,.T.);
#32=FACE_BOUND('',#117,.T.);
#33=FACE_BOUND('',#118,.T.);
#34=FACE_BOUND('',#119,.T.);
#35=FACE_BOUND('',#127,.T.);
#36=FACE_BOUND('',#131,.T.);
#37=CIRCLE('',#577,11.4891252930761);
#38=CIRCLE('',#578,2.);
#39=CIRCLE('',#580,12.1243556529821);
#40=CIRCLE('',#583,12.3097770997243);
#41=CIRCLE('',#585,12.9903810567666);
#42=CIRCLE('',#586,12.1243556529821);
#43=CIRCLE('',#588,12.3097770997243);
#44=CIRCLE('',#589,11.4891252930761);
#45=CIRCLE('',#591,12.9903810567666);
#46=CIRCLE('',#595,15.);
#47=CIRCLE('',#596,11.5020735131331);
#48=CIRCLE('',#597,14.7549991528295);
#49=CIRCLE('',#598,14.3917439585911);
#50=CIRCLE('',#599,14.3917439585911);
#51=CIRCLE('',#600,14.7549991528295);
#52=CIRCLE('',#601,11.5020735131331);
#53=CIRCLE('',#610,2.);
#54=CIRCLE('',#612,3.);
#55=ELLIPSE('',#569,1.4142135623731,1.);
#56=ELLIPSE('',#570,1.4142135623731,1.);
#57=ELLIPSE('',#572,1.4142135623731,1.);
#58=ELLIPSE('',#574,1.4142135623731,1.);
#59=CYLINDRICAL_SURFACE('',#568,1.);
#60=CYLINDRICAL_SURFACE('',#571,1.);
#61=CYLINDRICAL_SURFACE('',#573,1.);
#62=CYLINDRICAL_SURFACE('',#575,1.);
#63=CYLINDRICAL_SURFACE('',#609,2.);
#64=CYLINDRICAL_SURFACE('',#611,3.);
#65=FACE_OUTER_BOUND('',#95,.T.);
#66=FACE_OUTER_BOUND('',#96,.T.);
#67=FACE_OUTER_BOUND('',#97,.T.);
#68=FACE_OUTER_BOUND('',#98,.T.);
#69=FACE_OUTER_BOUND('',#99,.T.);
#70=FACE_OUTER_BOUND('',#100,.T.);
#71=FACE_OUTER_BOUND('',#101,.T.);
#72=FACE_OUTER_BOUND('',#102,.T.);
#73=FACE_OUTER_BOUND('',#103,.T.);
#74=FACE_OUTER_BOUND('',#104,.T.);
#75=FACE_OUTER_BOUND('',#105,.T.);
#76=FACE_OUTER_BOUND('',#107,.T.);
#77=FACE_OUTER_BOUND('',#108,.T.);
#78=FACE_OUTER_BOUND('',#109,.T.);
#79=FACE_OUTER_BOUND('',#110,.T.);
#80=FACE_OUTER_BOUND('',#111,.T.);
#81=FACE_OUTER_BOUND('',#112,.T.);
#82=FACE_OUTER_BOUND('',#113,.T.);
#83=FACE_OUTER_BOUND('',#114,.T.);
#84=FACE_OUTER_BOUND('',#116,.T.);
#85=FACE_OUTER_BOUND('',#120,.T.);
#86=FACE_OUTER_BOUND('',#121,.T.);
#87=FACE_OUTER_BOUND('',#122,.T.);
#88=FACE_OUTER_BOUND('',#123,.T.);
#89=FACE_OUTER_BOUND('',#124,.T.);
#90=FACE_OUTER_BOUND('',#125,.T.);
#91=FACE_OUTER_BOUND('',#126,.T.);
#92=FACE_OUTER_BOUND('',#128,.T.);
#93=FACE_OUTER_BOUND('',#129,.T.);
#94=FACE_OUTER_BOUND('',#130,.T.);
#95=EDGE_LOOP('',(#347,#348,#349,#350));
#96=EDGE_LOOP('',(#351,#352,#353,#354));
#97=EDGE_LOOP('',(#355,#356,#357,#358));
#98=EDGE_LOOP('',(#359,#360,#361,#362));
#99=EDGE_LOOP('',(#363,#364,#365,#366));
#100=EDGE_LOOP('',(#367,#368,#369,#370));
#101=EDGE_LOOP('',(#371,#372,#373,#374));
#102=EDGE_LOOP('',(#375,#376,#377,#378));
#103=EDGE_LOOP('',(#379,#380,#381,#382));
#104=EDGE_LOOP('',(#383,#384,#385,#386));
#105=EDGE_LOOP('',(#387,#388,#389,#390));
#106=EDGE_LOOP('',(#391));
#107=EDGE_LOOP('',(#392,#393,#394,#395,#396,#397));
#108=EDGE_LOOP('',(#398,#399,#400,#401));
#109=EDGE_LOOP('',(#402,#403,#404,#405,#406,#407));
#110=EDGE_LOOP('',(#408,#409,#410,#411));
#111=EDGE_LOOP('',(#412,#413,#414,#415,#416,#417));
#112=EDGE_LOOP('',(#418,#419,#420,#421));
#113=EDGE_LOOP('',(#422,#423,#424,#425,#426,#427));
#114=EDGE_LOOP('',(#428,#429,#430,#431));
#115=EDGE_LOOP('',(#432,#433,#434,#435,#436,#437));
#116=EDGE_LOOP('',(#438,#439));
#117=EDGE_LOOP('',(#440,#441));
#118=EDGE_LOOP('',(#442,#443,#444,#445,#446,#447));
#119=EDGE_LOOP('',(#448,#449,#450,#451));
#120=EDGE_LOOP('',(#452,#453,#454,#455));
#121=EDGE_LOOP('',(#456,#457,#458,#459));
#122=EDGE_LOOP('',(#460,#461,#462,#463));
#123=EDGE_LOOP('',(#464,#465,#466,#467));
#124=EDGE_LOOP('',(#468,#469,#470,#471));
#125=EDGE_LOOP('',(#472,#473,#474,#475));
#126=EDGE_LOOP('',(#476,#477,#478,#479,#480,#481));
#127=EDGE_LOOP('',(#482,#483,#484,#485,#486,#487));
#128=EDGE_LOOP('',(#488,#489,#490,#491));
#129=EDGE_LOOP('',(#492,#493,#494,#495,#496));
#130=EDGE_LOOP('',(#497));
#131=EDGE_LOOP('',(#498));
#132=LINE('',#768,#176);
#133=LINE('',#770,#177);
#134=LINE('',#772,#178);
#135=LINE('',#773,#179);
#136=LINE('',#776,#180);
#137=LINE('',#778,#181);
#138=LINE('',#779,#182);
#139=LINE('',#782,#183);
#140=LINE('',#784,#184);
#141=LINE('',#785,#185);
#142=LINE('',#788,#186);
#143=LINE('',#790,#187);
#144=LINE('',#791,#188);
#145=LINE('',#794,#189);
#146=LINE('',#796,#190);
#147=LINE('',#797,#191);
#148=LINE('',#799,#192);
#149=LINE('',#800,#193);
#150=LINE('',#804,#194);
#151=LINE('',#808,#195);
#152=LINE('',#812,#196);
#153=LINE('',#814,#197);
#154=LINE('',#818,#198);
#155=LINE('',#820,#199);
#156=LINE('',#823,#200);
#157=LINE('',#824,#201);
#158=LINE('',#827,#202);
#159=LINE('',#830,#203);
#160=LINE('',#835,#204);
#161=LINE('',#950,#205);
#162=LINE('',#1008,#206);
#163=LINE('',#1010,#207);
#164=LINE('',#1011,#208);
#165=LINE('',#1014,#209);
#166=LINE('',#1015,#210);
#167=LINE('',#1018,#211);
#168=LINE('',#1019,#212);
#169=LINE('',#1022,#213);
#170=LINE('',#1023,#214);
#171=LINE('',#1026,#215);
#172=LINE('',#1027,#216);
#173=LINE('',#1029,#217);
#174=LINE('',#1034,#218);
#175=LINE('',#1037,#219);
#176=VECTOR('',#618,10.);
#177=VECTOR('',#619,10.);
#178=VECTOR('',#620,10.);
#179=VECTOR('',#621,10.);
#180=VECTOR('',#624,10.);
#181=VECTOR('',#625,10.);
#182=VECTOR('',#626,10.);
#183=VECTOR('',#629,10.);
#184=VECTOR('',#630,10.);
#185=VECTOR('',#631,10.);
#186=VECTOR('',#634,10.);
#187=VECTOR('',#635,10.);
#188=VECTOR('',#636,10.);
#189=VECTOR('',#639,10.);
#190=VECTOR('',#640,10.);
#191=VECTOR('',#641,10.);
#192=VECTOR('',#644,10.);
#193=VECTOR('',#645,10.);
#194=VECTOR('',#648,10.);
#195=VECTOR('',#651,10.);
#196=VECTOR('',#656,10.);
#197=VECTOR('',#657,10.);
#198=VECTOR('',#662,10.);
#199=VECTOR('',#663,10.);
#200=VECTOR('',#668,10.);
#201=VECTOR('',#669,10.);
#202=VECTOR('',#672,10.);
#203=VECTOR('',#675,10.);
#204=VECTOR('',#680,10.);
#205=VECTOR('',#707,10.);
#206=VECTOR('',#728,10.);
#207=VECTOR('',#729,10.);
#208=VECTOR('',#730,10.);
#209=VECTOR('',#733,10.);
#210=VECTOR('',#734,10.);
#211=VECTOR('',#737,10.);
#212=VECTOR('',#738,10.);
#213=VECTOR('',#741,10.);
#214=VECTOR('',#742,10.);
#215=VECTOR('',#745,10.);
#216=VECTOR('',#746,10.);
#217=VECTOR('',#749,10.);
#218=VECTOR('',#756,2.);
#219=VECTOR('',#759,3.);
#220=VERTEX_POINT('',#766);
#221=VERTEX_POINT('',#767);
#222=VERTEX_POINT('',#769);
#223=VERTEX_POINT('',#771);
#224=VERTEX_POINT('',#775);
#225=VERTEX_POINT('',#777);
#226=VERTEX_POINT('',#781);
#227=VERTEX_POINT('',#783);
#228=VERTEX_POINT('',#787);
#229=VERTEX_POINT('',#789);
#230=VERTEX_POINT('',#793);
#231=VERTEX_POINT('',#795);
#232=VERTEX_POINT('',#802);
#233=VERTEX_POINT('',#803);
#234=VERTEX_POINT('',#805);
#235=VERTEX_POINT('',#807);
#236=VERTEX_POINT('',#811);
#237=VERTEX_POINT('',#813);
#238=VERTEX_POINT('',#817);
#239=VERTEX_POINT('',#819);
#240=VERTEX_POINT('',#826);
#241=VERTEX_POINT('',#828);
#242=VERTEX_POINT('',#831);
#243=VERTEX_POINT('',#834);
#244=VERTEX_POINT('',#836);
#245=VERTEX_POINT('',#841);
#246=VERTEX_POINT('',#849);
#247=VERTEX_POINT('',#850);
#248=VERTEX_POINT('',#852);
#249=VERTEX_POINT('',#896);
#250=VERTEX_POINT('',#898);
#251=VERTEX_POINT('',#919);
#252=VERTEX_POINT('',#941);
#253=VERTEX_POINT('',#953);
#254=VERTEX_POINT('',#954);
#255=VERTEX_POINT('',#956);
#256=VERTEX_POINT('',#957);
#257=VERTEX_POINT('',#994);
#258=VERTEX_POINT('',#995);
#259=VERTEX_POINT('',#997);
#260=VERTEX_POINT('',#999);
#261=VERTEX_POINT('',#1001);
#262=VERTEX_POINT('',#1003);
#263=VERTEX_POINT('',#1007);
#264=VERTEX_POINT('',#1009);
#265=VERTEX_POINT('',#1013);
#266=VERTEX_POINT('',#1017);
#267=VERTEX_POINT('',#1021);
#268=VERTEX_POINT('',#1025);
#269=VERTEX_POINT('',#1032);
#270=VERTEX_POINT('',#1036);
#271=EDGE_CURVE('',#220,#221,#132,.T.);
#272=EDGE_CURVE('',#222,#220,#133,.T.);
#273=EDGE_CURVE('',#223,#222,#134,.T.);
#274=EDGE_CURVE('',#223,#221,#135,.T.);
#275=EDGE_CURVE('',#221,#224,#136,.T.);
#276=EDGE_CURVE('',#225,#223,#137,.T.);
#277=EDGE_CURVE('',#225,#224,#138,.T.);
#278=EDGE_CURVE('',#224,#226,#139,.T.);
#279=EDGE_CURVE('',#227,#225,#140,.T.);
#280=EDGE_CURVE('',#227,#226,#141,.T.);
#281=EDGE_CURVE('',#226,#228,#142,.T.);
#282=EDGE_CURVE('',#229,#227,#143,.T.);
#283=EDGE_CURVE('',#229,#228,#144,.T.);
#284=EDGE_CURVE('',#228,#230,#145,.T.);
#285=EDGE_CURVE('',#231,#229,#146,.T.);
#286=EDGE_CURVE('',#231,#230,#147,.T.);
#287=EDGE_CURVE('',#230,#220,#148,.T.);
#288=EDGE_CURVE('',#222,#231,#149,.T.);
#289=EDGE_CURVE('',#232,#233,#150,.T.);
#290=EDGE_CURVE('',#233,#234,#55,.T.);
#291=EDGE_CURVE('',#234,#235,#151,.T.);
#292=EDGE_CURVE('',#232,#235,#56,.T.);
#293=EDGE_CURVE('',#236,#234,#152,.T.);
#294=EDGE_CURVE('',#233,#237,#153,.T.);
#295=EDGE_CURVE('',#237,#236,#57,.T.);
#296=EDGE_CURVE('',#238,#236,#154,.T.);
#297=EDGE_CURVE('',#237,#239,#155,.T.);
#298=EDGE_CURVE('',#239,#238,#58,.T.);
#299=EDGE_CURVE('',#235,#238,#156,.T.);
#300=EDGE_CURVE('',#239,#232,#157,.T.);
#301=EDGE_CURVE('',#240,#235,#158,.T.);
#302=EDGE_CURVE('',#241,#240,#37,.T.);
#303=EDGE_CURVE('',#241,#238,#159,.T.);
#304=EDGE_CURVE('',#242,#242,#38,.T.);
#305=EDGE_CURVE('',#243,#234,#160,.T.);
#306=EDGE_CURVE('',#244,#243,#20,.T.);
#307=EDGE_CURVE('',#244,#245,#39,.T.);
#308=EDGE_CURVE('',#240,#245,#21,.T.);
#309=EDGE_CURVE('',#246,#247,#40,.T.);
#310=EDGE_CURVE('',#247,#248,#22,.T.);
#311=EDGE_CURVE('',#248,#241,#23,.T.);
#312=EDGE_CURVE('',#245,#246,#24,.T.);
#313=EDGE_CURVE('',#247,#249,#41,.T.);
#314=EDGE_CURVE('',#249,#250,#25,.T.);
#315=EDGE_CURVE('',#250,#248,#42,.T.);
#316=EDGE_CURVE('',#249,#251,#43,.T.);
#317=EDGE_CURVE('',#251,#244,#26,.T.);
#318=EDGE_CURVE('',#243,#252,#44,.T.);
#319=EDGE_CURVE('',#252,#250,#27,.T.);
#320=EDGE_CURVE('',#251,#246,#45,.T.);
#321=EDGE_CURVE('',#252,#236,#161,.T.);
#322=EDGE_CURVE('',#253,#254,#46,.T.);
#323=EDGE_CURVE('',#255,#256,#28,.T.);
#324=EDGE_CURVE('',#256,#255,#29,.T.);
#325=EDGE_CURVE('',#257,#258,#47,.T.);
#326=EDGE_CURVE('',#258,#259,#48,.T.);
#327=EDGE_CURVE('',#259,#260,#49,.T.);
#328=EDGE_CURVE('',#260,#261,#50,.T.);
#329=EDGE_CURVE('',#261,#262,#51,.T.);
#330=EDGE_CURVE('',#262,#257,#52,.T.);
#331=EDGE_CURVE('',#260,#263,#162,.T.);
#332=EDGE_CURVE('',#263,#264,#163,.T.);
#333=EDGE_CURVE('',#261,#264,#164,.T.);
#334=EDGE_CURVE('',#264,#265,#165,.T.);
#335=EDGE_CURVE('',#262,#265,#166,.T.);
#336=EDGE_CURVE('',#265,#266,#167,.T.);
#337=EDGE_CURVE('',#257,#266,#168,.T.);
#338=EDGE_CURVE('',#266,#267,#169,.T.);
#339=EDGE_CURVE('',#258,#267,#170,.T.);
#340=EDGE_CURVE('',#259,#268,#171,.T.);
#341=EDGE_CURVE('',#268,#263,#172,.T.);
#342=EDGE_CURVE('',#267,#268,#173,.T.);
#343=EDGE_CURVE('',#269,#269,#53,.T.);
#344=EDGE_CURVE('',#269,#242,#174,.T.);
#345=EDGE_CURVE('',#256,#270,#175,.T.);
#346=EDGE_CURVE('',#270,#270,#54,.T.);
#347=ORIENTED_EDGE('',*,*,#271,.F.);
#348=ORIENTED_EDGE('',*,*,#272,.F.);
#349=ORIENTED_EDGE('',*,*,#273,.F.);
#350=ORIENTED_EDGE('',*,*,#274,.T.);
#351=ORIENTED_EDGE('',*,*,#275,.F.);
#352=ORIENTED_EDGE('',*,*,#274,.F.);
#353=ORIENTED_EDGE('',*,*,#276,.F.);
#354=ORIENTED_EDGE('',*,*,#277,.T.);
#355=ORIENTED_EDGE('',*,*,#278,.F.);
#356=ORIENTED_EDGE('',*,*,#277,.F.);
#357=ORIENTED_EDGE('',*,*,#279,.F.);
#358=ORIENTED_EDGE('',*,*,#280,.T.);
#359=ORIENTED_EDGE('',*,*,#281,.F.);
#360=ORIENTED_EDGE('',*,*,#280,.F.);
#361=ORIENTED_EDGE('',*,*,#282,.F.);
#362=ORIENTED_EDGE('',*,*,#283,.T.);
#363=ORIENTED_EDGE('',*,*,#284,.F.);
#364=ORIENTED_EDGE('',*,*,#283,.F.);
#365=ORIENTED_EDGE('',*,*,#285,.F.);
#366=ORIENTED_EDGE('',*,*,#286,.T.);
#367=ORIENTED_EDGE('',*,*,#287,.F.);
#368=ORIENTED_EDGE('',*,*,#286,.F.);
#369=ORIENTED_EDGE('',*,*,#288,.F.);
#370=ORIENTED_EDGE('',*,*,#272,.T.);
#371=ORIENTED_EDGE('',*,*,#289,.T.);
#372=ORIENTED_EDGE('',*,*,#290,.T.);
#373=ORIENTED_EDGE('',*,*,#291,.T.);
#374=ORIENTED_EDGE('',*,*,#292,.F.);
#375=ORIENTED_EDGE('',*,*,#293,.T.);
#376=ORIENTED_EDGE('',*,*,#290,.F.);
#377=ORIENTED_EDGE('',*,*,#294,.T.);
#378=ORIENTED_EDGE('',*,*,#295,.T.);
#379=ORIENTED_EDGE('',*,*,#296,.T.);
#380=ORIENTED_EDGE('',*,*,#295,.F.);
#381=ORIENTED_EDGE('',*,*,#297,.T.);
#382=ORIENTED_EDGE('',*,*,#298,.T.);
#383=ORIENTED_EDGE('',*,*,#299,.T.);
#384=ORIENTED_EDGE('',*,*,#298,.F.);
#385=ORIENTED_EDGE('',*,*,#300,.T.);
#386=ORIENTED_EDGE('',*,*,#292,.T.);
#387=ORIENTED_EDGE('',*,*,#299,.F.);
#388=ORIENTED_EDGE('',*,*,#301,.F.);
#389=ORIENTED_EDGE('',*,*,#302,.F.);
#390=ORIENTED_EDGE('',*,*,#303,.T.);
#391=ORIENTED_EDGE('',*,*,#304,.F.);
#392=ORIENTED_EDGE('',*,*,#291,.F.);
#393=ORIENTED_EDGE('',*,*,#305,.F.);
#394=ORIENTED_EDGE('',*,*,#306,.F.);
#395=ORIENTED_EDGE('',*,*,#307,.T.);
#396=ORIENTED_EDGE('',*,*,#308,.F.);
#397=ORIENTED_EDGE('',*,*,#301,.T.);
#398=ORIENTED_EDGE('',*,*,#289,.F.);
#399=ORIENTED_EDGE('',*,*,#300,.F.);
#400=ORIENTED_EDGE('',*,*,#297,.F.);
#401=ORIENTED_EDGE('',*,*,#294,.F.);
#402=ORIENTED_EDGE('',*,*,#309,.T.);
#403=ORIENTED_EDGE('',*,*,#310,.T.);
#404=ORIENTED_EDGE('',*,*,#311,.T.);
#405=ORIENTED_EDGE('',*,*,#302,.T.);
#406=ORIENTED_EDGE('',*,*,#308,.T.);
#407=ORIENTED_EDGE('',*,*,#312,.T.);
#408=ORIENTED_EDGE('',*,*,#313,.T.);
#409=ORIENTED_EDGE('',*,*,#314,.T.);
#410=ORIENTED_EDGE('',*,*,#315,.T.);
#411=ORIENTED_EDGE('',*,*,#310,.F.);
#412=ORIENTED_EDGE('',*,*,#316,.T.);
#413=ORIENTED_EDGE('',*,*,#317,.T.);
#414=ORIENTED_EDGE('',*,*,#306,.T.);
#415=ORIENTED_EDGE('',*,*,#318,.T.);
#416=ORIENTED_EDGE('',*,*,#319,.T.);
#417=ORIENTED_EDGE('',*,*,#314,.F.);
#418=ORIENTED_EDGE('',*,*,#307,.F.);
#419=ORIENTED_EDGE('',*,*,#317,.F.);
#420=ORIENTED_EDGE('',*,*,#320,.T.);
#421=ORIENTED_EDGE('',*,*,#312,.F.);
#422=ORIENTED_EDGE('',*,*,#296,.F.);
#423=ORIENTED_EDGE('',*,*,#303,.F.);
#424=ORIENTED_EDGE('',*,*,#311,.F.);
#425=ORIENTED_EDGE('',*,*,#315,.F.);
#426=ORIENTED_EDGE('',*,*,#319,.F.);
#427=ORIENTED_EDGE('',*,*,#321,.T.);
#428=ORIENTED_EDGE('',*,*,#293,.F.);
#429=ORIENTED_EDGE('',*,*,#321,.F.);
#430=ORIENTED_EDGE('',*,*,#318,.F.);
#431=ORIENTED_EDGE('',*,*,#305,.T.);
#432=ORIENTED_EDGE('',*,*,#281,.T.);
#433=ORIENTED_EDGE('',*,*,#284,.T.);
#434=ORIENTED_EDGE('',*,*,#287,.T.);
#435=ORIENTED_EDGE('',*,*,#271,.T.);
#436=ORIENTED_EDGE('',*,*,#275,.T.);
#437=ORIENTED_EDGE('',*,*,#278,.T.);
#438=ORIENTED_EDGE('',*,*,#322,.T.);
#439=ORIENTED_EDGE('',*,*,#322,.F.);
#440=ORIENTED_EDGE('',*,*,#323,.T.);
#441=ORIENTED_EDGE('',*,*,#324,.T.);
#442=ORIENTED_EDGE('',*,*,#325,.T.);
#443=ORIENTED_EDGE('',*,*,#326,.T.);
#444=ORIENTED_EDGE('',*,*,#327,.T.);
#445=ORIENTED_EDGE('',*,*,#328,.T.);
#446=ORIENTED_EDGE('',*,*,#329,.T.);
#447=ORIENTED_EDGE('',*,*,#330,.T.);
#448=ORIENTED_EDGE('',*,*,#309,.F.);
#449=ORIENTED_EDGE('',*,*,#320,.F.);
#450=ORIENTED_EDGE('',*,*,#316,.F.);
#451=ORIENTED_EDGE('',*,*,#313,.F.);
#452=ORIENTED_EDGE('',*,*,#328,.F.);
#453=ORIENTED_EDGE('',*,*,#331,.T.);
#454=ORIENTED_EDGE('',*,*,#332,.T.);
#455=ORIENTED_EDGE('',*,*,#333,.F.);
#456=ORIENTED_EDGE('',*,*,#329,.F.);
#457=ORIENTED_EDGE('',*,*,#333,.T.);
#458=ORIENTED_EDGE('',*,*,#334,.T.);
#459=ORIENTED_EDGE('',*,*,#335,.F.);
#460=ORIENTED_EDGE('',*,*,#330,.F.);
#461=ORIENTED_EDGE('',*,*,#335,.T.);
#462=ORIENTED_EDGE('',*,*,#336,.T.);
#463=ORIENTED_EDGE('',*,*,#337,.F.);
#464=ORIENTED_EDGE('',*,*,#325,.F.);
#465=ORIENTED_EDGE('',*,*,#337,.T.);
#466=ORIENTED_EDGE('',*,*,#338,.T.);
#467=ORIENTED_EDGE('',*,*,#339,.F.);
#468=ORIENTED_EDGE('',*,*,#327,.F.);
#469=ORIENTED_EDGE('',*,*,#340,.T.);
#470=ORIENTED_EDGE('',*,*,#341,.T.);
#471=ORIENTED_EDGE('',*,*,#331,.F.);
#472=ORIENTED_EDGE('',*,*,#326,.F.);
#473=ORIENTED_EDGE('',*,*,#339,.T.);
#474=ORIENTED_EDGE('',*,*,#342,.T.);
#475=ORIENTED_EDGE('',*,*,#340,.F.);
#476=ORIENTED_EDGE('',*,*,#342,.F.);
#477=ORIENTED_EDGE('',*,*,#338,.F.);
#478=ORIENTED_EDGE('',*,*,#336,.F.);
#479=ORIENTED_EDGE('',*,*,#334,.F.);
#480=ORIENTED_EDGE('',*,*,#332,.F.);
#481=ORIENTED_EDGE('',*,*,#341,.F.);
#482=ORIENTED_EDGE('',*,*,#282,.T.);
#483=ORIENTED_EDGE('',*,*,#279,.T.);
#484=ORIENTED_EDGE('',*,*,#276,.T.);
#485=ORIENTED_EDGE('',*,*,#273,.T.);
#486=ORIENTED_EDGE('',*,*,#288,.T.);
#487=ORIENTED_EDGE('',*,*,#285,.T.);
#488=ORIENTED_EDGE('',*,*,#343,.F.);
#489=ORIENTED_EDGE('',*,*,#344,.T.);
#490=ORIENTED_EDGE('',*,*,#304,.T.);
#491=ORIENTED_EDGE('',*,*,#344,.F.);
#492=ORIENTED_EDGE('',*,*,#323,.F.);
#493=ORIENTED_EDGE('',*,*,#324,.F.);
#494=ORIENTED_EDGE('',*,*,#345,.T.);
#495=ORIENTED_EDGE('',*,*,#346,.T.);
#496=ORIENTED_EDGE('',*,*,#345,.F.);
#497=ORIENTED_EDGE('',*,*,#346,.F.);
#498=ORIENTED_EDGE('',*,*,#343,.T.);
#499=PLANE('',#562);
#500=PLANE('',#563);
#501=PLANE('',#564);
#502=PLANE('',#565);
#503=PLANE('',#566);
#504=PLANE('',#567);
#505=PLANE('',#576);
#506=PLANE('',#579);
#507=PLANE('',#581);
#508=PLANE('',#592);
#509=PLANE('',#593);
#510=PLANE('',#602);
#511=PLANE('',#603);
#512=PLANE('',#604);
#513=PLANE('',#605);
#514=PLANE('',#606);
#515=PLANE('',#607);
#516=PLANE('',#608);
#517=PLANE('',#613);
#518=ADVANCED_FACE('',(#65),#499,.F.);
#519=ADVANCED_FACE('',(#66),#500,.F.);
#520=ADVANCED_FACE('',(#67),#501,.F.);
#521=ADVANCED_FACE('',(#68),#502,.F.);
#522=ADVANCED_FACE('',(#69),#503,.F.);
#523=ADVANCED_FACE('',(#70),#504,.F.);
#524=ADVANCED_FACE('',(#71),#59,.F.);
#525=ADVANCED_FACE('',(#72),#60,.F.);
#526=ADVANCED_FACE('',(#73),#61,.F.);
#527=ADVANCED_FACE('',(#74),#62,.F.);
#528=ADVANCED_FACE('',(#75,#30),#505,.F.);
#529=ADVANCED_FACE('',(#76),#506,.F.);
#530=ADVANCED_FACE('',(#77),#507,.F.);
#531=ADVANCED_FACE('',(#78),#16,.T.);
#532=ADVANCED_FACE('',(#79),#17,.T.);
#533=ADVANCED_FACE('',(#80),#18,.T.);
#534=ADVANCED_FACE('',(#81),#19,.T.);
#535=ADVANCED_FACE('',(#82),#508,.F.);
#536=ADVANCED_FACE('',(#83,#31),#509,.F.);
#537=ADVANCED_FACE('',(#84,#32,#33,#34),#15,.T.);
#538=ADVANCED_FACE('',(#85),#510,.F.);
#539=ADVANCED_FACE('',(#86),#511,.F.);
#540=ADVANCED_FACE('',(#87),#512,.F.);
#541=ADVANCED_FACE('',(#88),#513,.F.);
#542=ADVANCED_FACE('',(#89),#514,.F.);
#543=ADVANCED_FACE('',(#90),#515,.F.);
#544=ADVANCED_FACE('',(#91,#35),#516,.F.);
#545=ADVANCED_FACE('',(#92),#63,.F.);
#546=ADVANCED_FACE('',(#93),#64,.F.);
#547=ADVANCED_FACE('',(#94,#36),#517,.T.);
#548=CLOSED_SHELL('',(#518,#519,#520,#521,#522,#523,#524,#525,#526,#527,
#528,#529,#530,#531,#532,#533,#534,#535,#536,#537,#538,#539,#540,#541,#542,
#543,#544,#545,#546,#547));
#549=DERIVED_UNIT_ELEMENT(#551,1.);
#550=DERIVED_UNIT_ELEMENT(#1045,-3.);
#551=(
MASS_UNIT()
NAMED_UNIT(*)
SI_UNIT(.KILO.,.GRAM.)
);
#552=DERIVED_UNIT((#549,#550));
#553=MEASURE_REPRESENTATION_ITEM('density measure',
POSITIVE_RATIO_MEASURE(7850.),#552);
#554=PROPERTY_DEFINITION_REPRESENTATION(#559,#556);
#555=PROPERTY_DEFINITION_REPRESENTATION(#560,#557);
#556=REPRESENTATION('material name',(#558),#1042);
#557=REPRESENTATION('density',(#553),#1042);
#558=DESCRIPTIVE_REPRESENTATION_ITEM('Acier','Acier');
#559=PROPERTY_DEFINITION('material property','material name',#1052);
#560=PROPERTY_DEFINITION('material property','density of part',#1052);
#561=AXIS2_PLACEMENT_3D('',#764,#614,#615);
#562=AXIS2_PLACEMENT_3D('',#765,#616,#617);
#563=AXIS2_PLACEMENT_3D('',#774,#622,#623);
#564=AXIS2_PLACEMENT_3D('',#780,#627,#628);
#565=AXIS2_PLACEMENT_3D('',#786,#632,#633);
#566=AXIS2_PLACEMENT_3D('',#792,#637,#638);
#567=AXIS2_PLACEMENT_3D('',#798,#642,#643);
#568=AXIS2_PLACEMENT_3D('',#801,#646,#647);
#569=AXIS2_PLACEMENT_3D('',#806,#649,#650);
#570=AXIS2_PLACEMENT_3D('',#809,#652,#653);
#571=AXIS2_PLACEMENT_3D('',#810,#654,#655);
#572=AXIS2_PLACEMENT_3D('',#815,#658,#659);
#573=AXIS2_PLACEMENT_3D('',#816,#660,#661);
#574=AXIS2_PLACEMENT_3D('',#821,#664,#665);
#575=AXIS2_PLACEMENT_3D('',#822,#666,#667);
#576=AXIS2_PLACEMENT_3D('',#825,#670,#671);
#577=AXIS2_PLACEMENT_3D('',#829,#673,#674);
#578=AXIS2_PLACEMENT_3D('',#832,#676,#677);
#579=AXIS2_PLACEMENT_3D('',#833,#678,#679);
#580=AXIS2_PLACEMENT_3D('',#842,#681,#682);
#581=AXIS2_PLACEMENT_3D('',#847,#683,#684);
#582=AXIS2_PLACEMENT_3D('',#848,#685,#686);
#583=AXIS2_PLACEMENT_3D('',#851,#687,#688);
#584=AXIS2_PLACEMENT_3D('',#895,#689,#690);
#585=AXIS2_PLACEMENT_3D('',#897,#691,#692);
#586=AXIS2_PLACEMENT_3D('',#917,#693,#694);
#587=AXIS2_PLACEMENT_3D('',#918,#695,#696);
#588=AXIS2_PLACEMENT_3D('',#920,#697,#698);
#589=AXIS2_PLACEMENT_3D('',#942,#699,#700);
#590=AXIS2_PLACEMENT_3D('',#947,#701,#702);
#591=AXIS2_PLACEMENT_3D('',#948,#703,#704);
#592=AXIS2_PLACEMENT_3D('',#949,#705,#706);
#593=AXIS2_PLACEMENT_3D('',#951,#708,#709);
#594=AXIS2_PLACEMENT_3D('',#952,#710,#711);
#595=AXIS2_PLACEMENT_3D('',#955,#712,#713);
#596=AXIS2_PLACEMENT_3D('',#996,#714,#715);
#597=AXIS2_PLACEMENT_3D('',#998,#716,#717);
#598=AXIS2_PLACEMENT_3D('',#1000,#718,#719);
#599=AXIS2_PLACEMENT_3D('',#1002,#720,#721);
#600=AXIS2_PLACEMENT_3D('',#1004,#722,#723);
#601=AXIS2_PLACEMENT_3D('',#1005,#724,#725);
#602=AXIS2_PLACEMENT_3D('',#1006,#726,#727);
#603=AXIS2_PLACEMENT_3D('',#1012,#731,#732);
#604=AXIS2_PLACEMENT_3D('',#1016,#735,#736);
#605=AXIS2_PLACEMENT_3D('',#1020,#739,#740);
#606=AXIS2_PLACEMENT_3D('',#1024,#743,#744);
#607=AXIS2_PLACEMENT_3D('',#1028,#747,#748);
#608=AXIS2_PLACEMENT_3D('',#1030,#750,#751);
#609=AXIS2_PLACEMENT_3D('',#1031,#752,#753);
#610=AXIS2_PLACEMENT_3D('',#1033,#754,#755);
#611=AXIS2_PLACEMENT_3D('',#1035,#757,#758);
#612=AXIS2_PLACEMENT_3D('',#1038,#760,#761);
#613=AXIS2_PLACEMENT_3D('',#1039,#762,#763);
#614=DIRECTION('axis',(0.,0.,1.));
#615=DIRECTION('refdir',(1.,0.,0.));
#616=DIRECTION('center_axis',(0.,-0.866025403784438,0.500000000000001));
#617=DIRECTION('ref_axis',(0.,-0.500000000000001,-0.866025403784438));
#618=DIRECTION('',(0.,0.500000000000001,0.866025403784438));
#619=DIRECTION('',(1.,0.,0.));
#620=DIRECTION('',(0.,-0.500000000000001,-0.866025403784438));
#621=DIRECTION('',(1.,0.,0.));
#622=DIRECTION('center_axis',(0.,1.06831260354643E-16,1.));
#623=DIRECTION('ref_axis',(0.,-1.,1.06831260354643E-16));
#624=DIRECTION('',(0.,1.,-1.06831260354643E-16));
#625=DIRECTION('',(0.,-1.,1.06831260354643E-16));
#626=DIRECTION('',(1.,0.,0.));
#627=DIRECTION('center_axis',(0.,0.866025403784438,0.500000000000001));
#628=DIRECTION('ref_axis',(0.,-0.500000000000001,0.866025403784438));
#629=DIRECTION('',(0.,0.500000000000001,-0.866025403784438));
#630=DIRECTION('',(0.,-0.500000000000001,0.866025403784438));
#631=DIRECTION('',(1.,0.,0.));
#632=DIRECTION('center_axis',(0.,0.866025403784438,-0.500000000000001));
#633=DIRECTION('ref_axis',(0.,0.500000000000001,0.866025403784438));
#634=DIRECTION('',(0.,-0.500000000000001,-0.866025403784438));
#635=DIRECTION('',(0.,0.500000000000001,0.866025403784438));
#636=DIRECTION('',(1.,0.,0.));
#637=DIRECTION('center_axis',(0.,0.,-1.));
#638=DIRECTION('ref_axis',(0.,1.,0.));
#639=DIRECTION('',(0.,-1.,0.));
#640=DIRECTION('',(0.,1.,0.));
#641=DIRECTION('',(1.,0.,0.));
#642=DIRECTION('center_axis',(0.,-0.866025403784438,-0.500000000000001));
#643=DIRECTION('ref_axis',(0.,0.500000000000001,-0.866025403784438));
#644=DIRECTION('',(0.,-0.500000000000001,0.866025403784438));
#645=DIRECTION('',(0.,0.500000000000001,-0.866025403784438));
#646=DIRECTION('center_axis',(-1.,0.,0.));
#647=DIRECTION('ref_axis',(0.,-0.707106781186548,0.707106781186547));
#648=DIRECTION('',(-1.,0.,0.));
#649=DIRECTION('center_axis',(-0.707106781186548,0.,-0.707106781186548));
#650=DIRECTION('ref_axis',(0.707106781186547,0.,-0.707106781186547));
#651=DIRECTION('',(1.,0.,0.));
#652=DIRECTION('center_axis',(-0.707106781186548,0.,0.707106781186548));
#653=DIRECTION('ref_axis',(-0.707106781186548,0.,-0.707106781186548));
#654=DIRECTION('center_axis',(0.,0.,-1.));
#655=DIRECTION('ref_axis',(-0.707106781186548,-0.707106781186548,0.));
#656=DIRECTION('',(0.,0.,1.));
#657=DIRECTION('',(0.,0.,-1.));
#658=DIRECTION('center_axis',(0.707106781186548,0.,-0.707106781186548));
#659=DIRECTION('ref_axis',(0.707106781186548,0.,0.707106781186548));
#660=DIRECTION('center_axis',(1.,0.,0.));
#661=DIRECTION('ref_axis',(0.,-0.707106781186548,-0.707106781186547));
#662=DIRECTION('',(-1.,0.,0.));
#663=DIRECTION('',(1.,0.,0.));
#664=DIRECTION('center_axis',(0.707106781186548,0.,0.707106781186548));
#665=DIRECTION('ref_axis',(-0.707106781186547,0.,0.707106781186547));
#666=DIRECTION('center_axis',(0.,0.,1.));
#667=DIRECTION('ref_axis',(0.707106781186548,-0.707106781186548,0.));
#668=DIRECTION('',(0.,0.,-1.));
#669=DIRECTION('',(0.,0.,1.));
#670=DIRECTION('center_axis',(1.,0.,0.));
#671=DIRECTION('ref_axis',(0.,0.,1.));
#672=DIRECTION('',(0.,-1.,0.));
#673=DIRECTION('center_axis',(1.,0.,0.));
#674=DIRECTION('ref_axis',(0.,1.,6.12323399573676E-17));
#675=DIRECTION('',(0.,-1.,0.));
#676=DIRECTION('center_axis',(-1.,0.,0.));
#677=DIRECTION('ref_axis',(0.,0.,-1.));
#678=DIRECTION('center_axis',(0.,0.,1.));
#679=DIRECTION('ref_axis',(-1.,0.,0.));
#680=DIRECTION('',(0.,-1.,0.));
#681=DIRECTION('center_axis',(0.,0.,-1.));
#682=DIRECTION('ref_axis',(0.,1.,0.));
#683=DIRECTION('center_axis',(0.,-1.,0.));
#684=DIRECTION('ref_axis',(0.,0.,-1.));
#685=DIRECTION('center_axis',(1.,0.,0.));
#686=DIRECTION('ref_axis',(0.,0.,-1.));
#687=DIRECTION('center_axis',(-1.,0.,0.));
#688=DIRECTION('ref_axis',(0.,1.,6.12323399573676E-17));
#689=DIRECTION('center_axis',(0.,0.,-1.));
#690=DIRECTION('ref_axis',(-1.,0.,0.));
#691=DIRECTION('center_axis',(0.,0.,1.));
#692=DIRECTION('ref_axis',(-1.22464679914735E-16,1.,0.));
#693=DIRECTION('center_axis',(0.,0.,-1.));
#694=DIRECTION('ref_axis',(-1.22464679914735E-16,1.,0.));
#695=DIRECTION('center_axis',(-1.,0.,0.));
#696=DIRECTION('ref_axis',(0.,0.,1.));
#697=DIRECTION('center_axis',(1.,0.,0.));
#698=DIRECTION('ref_axis',(0.,1.,-6.12323399573676E-17));
#699=DIRECTION('center_axis',(-1.,0.,0.));
#700=DIRECTION('ref_axis',(0.,1.,-6.12323399573676E-17));
#701=DIRECTION('center_axis',(0.,0.,1.));
#702=DIRECTION('ref_axis',(1.,0.,0.));
#703=DIRECTION('center_axis',(0.,0.,-1.));
#704=DIRECTION('ref_axis',(0.,1.,0.));
#705=DIRECTION('center_axis',(0.,0.,-1.));
#706=DIRECTION('ref_axis',(1.,0.,0.));
#707=DIRECTION('',(0.,-1.,0.));
#708=DIRECTION('center_axis',(-1.,0.,0.));
#709=DIRECTION('ref_axis',(0.,0.,-1.));
#710=DIRECTION('center_axis',(6.12323399573677E-17,0.,1.));
#711=DIRECTION('ref_axis',(1.,0.,0.));
#712=DIRECTION('center_axis',(1.48029736616688E-16,-1.,0.));
#713=DIRECTION('ref_axis',(-1.,-1.48029736616688E-16,0.));
#714=DIRECTION('center_axis',(0.,0.866025403784439,0.499999999999999));
#715=DIRECTION('ref_axis',(0.,0.499999999999999,-0.866025403784439));
#716=DIRECTION('center_axis',(0.,3.56104201182141E-16,1.));
#717=DIRECTION('ref_axis',(0.,1.,-3.56104201182141E-16));
#718=DIRECTION('center_axis',(0.,-0.866025403784439,0.5));
#719=DIRECTION('ref_axis',(0.,0.499999999999999,0.866025403784439));
#720=DIRECTION('center_axis',(0.,-0.866025403784438,-0.500000000000001));
#721=DIRECTION('ref_axis',(0.,-0.500000000000001,0.866025403784438));
#722=DIRECTION('center_axis',(0.,-3.56104201182141E-16,-1.));
#723=DIRECTION('ref_axis',(0.,-1.,3.56104201182141E-16));
#724=DIRECTION('center_axis',(0.,0.866025403784439,-0.5));
#725=DIRECTION('ref_axis',(0.,-0.5,-0.866025403784439));
#726=DIRECTION('center_axis',(0.,-0.866025403784438,-0.500000000000001));
#727=DIRECTION('ref_axis',(0.,0.500000000000001,-0.866025403784438));
#728=DIRECTION('',(1.,0.,0.));
#729=DIRECTION('',(0.,0.500000000000001,-0.866025403784438));
#730=DIRECTION('',(1.,0.,0.));
#731=DIRECTION('center_axis',(0.,-3.56104201182141E-16,-1.));
#732=DIRECTION('ref_axis',(0.,1.,-3.56104201182141E-16));
#733=DIRECTION('',(0.,1.,-3.56104201182141E-16));
#734=DIRECTION('',(1.,0.,0.));
#735=DIRECTION('center_axis',(0.,0.866025403784439,-0.5));
#736=DIRECTION('ref_axis',(0.,0.5,0.866025403784439));
#737=DIRECTION('',(0.,0.5,0.866025403784439));
#738=DIRECTION('',(1.,0.,0.));
#739=DIRECTION('center_axis',(0.,0.866025403784439,0.499999999999999));
#740=DIRECTION('ref_axis',(0.,-0.499999999999999,0.866025403784439));
#741=DIRECTION('',(0.,-0.499999999999999,0.866025403784439));
#742=DIRECTION('',(1.,0.,0.));
#743=DIRECTION('center_axis',(0.,-0.866025403784439,0.5));
#744=DIRECTION('ref_axis',(0.,-0.499999999999999,-0.866025403784439));
#745=DIRECTION('',(1.,0.,0.));
#746=DIRECTION('',(0.,-0.499999999999999,-0.866025403784439));
#747=DIRECTION('center_axis',(0.,3.56104201182141E-16,1.));
#748=DIRECTION('ref_axis',(0.,-1.,3.56104201182141E-16));
#749=DIRECTION('',(0.,-1.,3.56104201182141E-16));
#750=DIRECTION('center_axis',(1.,0.,0.));
#751=DIRECTION('ref_axis',(0.,0.,-1.));
#752=DIRECTION('center_axis',(-1.,0.,0.));
#753=DIRECTION('ref_axis',(0.,0.,-1.));
#754=DIRECTION('center_axis',(-1.,0.,0.));
#755=DIRECTION('ref_axis',(0.,0.,-1.));
#756=DIRECTION('',(-1.,0.,0.));
#757=DIRECTION('center_axis',(-1.,0.,0.));
#758=DIRECTION('ref_axis',(0.,0.,-1.));
#759=DIRECTION('',(-1.,0.,0.));
#760=DIRECTION('center_axis',(-1.,0.,0.));
#761=DIRECTION('ref_axis',(0.,0.,-1.));
#762=DIRECTION('center_axis',(1.,0.,0.));
#763=DIRECTION('ref_axis',(0.,0.,-1.));
#764=CARTESIAN_POINT('',(0.,0.,0.));
#765=CARTESIAN_POINT('Origin',(-15.,21.7009623413582,2.25));
#766=CARTESIAN_POINT('',(-7.,20.4019242356815,2.77555756156289E-16));
#767=CARTESIAN_POINT('',(-7.,21.7009623413582,2.25));
#768=CARTESIAN_POINT('',(-7.,23.5502408647363,5.45304435983689));
#769=CARTESIAN_POINT('',(-8.,20.4019242356815,2.77555756156289E-16));
#770=CARTESIAN_POINT('',(-15.,20.4019242356815,2.77555756156289E-16));
#771=CARTESIAN_POINT('',(-8.,21.7009623413582,2.25));
#772=CARTESIAN_POINT('',(-8.,21.376202814939,1.6875));
#773=CARTESIAN_POINT('',(-15.,21.7009623413582,2.25));
#774=CARTESIAN_POINT('Origin',(-15.,24.2990385527115,2.25));
#775=CARTESIAN_POINT('',(-7.,24.2990385527115,2.25));
#776=CARTESIAN_POINT('',(-7.,27.1495192763557,2.25));
#777=CARTESIAN_POINT('',(-8.,24.2990385527115,2.25));
#778=CARTESIAN_POINT('',(-8.,23.6495194998732,2.25));
#779=CARTESIAN_POINT('',(-15.,24.2990385527115,2.25));
#780=CARTESIAN_POINT('Origin',(-15.,25.5980766583881,-2.77555756156289E-16));
#781=CARTESIAN_POINT('',(-7.,25.5980766583881,-2.77555756156289E-16));
#782=CARTESIAN_POINT('',(-7.,24.849278970413,1.29695564016311));
#783=CARTESIAN_POINT('',(-8.,25.5980766583881,-2.77555756156289E-16));
#784=CARTESIAN_POINT('',(-8.,25.273317131969,0.5625));
#785=CARTESIAN_POINT('',(-15.,25.5980766583881,-2.77555756156289E-16));
#786=CARTESIAN_POINT('Origin',(-15.,24.2990385527115,-2.25));
#787=CARTESIAN_POINT('',(-7.,24.2990385527115,-2.25));
#788=CARTESIAN_POINT('',(-7.,26.797836128928,2.07804435983689));
#789=CARTESIAN_POINT('',(-8.,24.2990385527115,-2.25));
#790=CARTESIAN_POINT('',(-8.,24.6237980791307,-1.6875));
#791=CARTESIAN_POINT('',(-15.,24.2990385527115,-2.25));
#792=CARTESIAN_POINT('Origin',(-15.,21.7009623413582,-2.25));
#793=CARTESIAN_POINT('',(-7.,21.7009623413582,-2.25));
#794=CARTESIAN_POINT('',(-7.,25.8504811706791,-2.25));
#795=CARTESIAN_POINT('',(-8.,21.7009623413582,-2.25));
#796=CARTESIAN_POINT('',(-8.,22.3504813941965,-2.25));
#797=CARTESIAN_POINT('',(-15.,21.7009623413582,-2.25));
#798=CARTESIAN_POINT('Origin',(-15.,20.4019242356815,2.77555756156289E-16));
#799=CARTESIAN_POINT('',(-7.,20.3026456005447,0.171955640163109));
#800=CARTESIAN_POINT('',(-8.,20.7266837621007,-0.5625));
#801=CARTESIAN_POINT('Origin',(3.5,11.,5.));
#802=CARTESIAN_POINT('',(6.,10.,5.));
#803=CARTESIAN_POINT('',(-6.,10.,5.));
#804=CARTESIAN_POINT('',(3.5,10.,5.));
#805=CARTESIAN_POINT('',(-7.,11.,6.));
#806=CARTESIAN_POINT('Origin',(-6.,11.,5.));
#807=CARTESIAN_POINT('',(7.,11.,6.));
#808=CARTESIAN_POINT('',(3.5,11.,6.));
#809=CARTESIAN_POINT('Origin',(6.,11.,5.));
#810=CARTESIAN_POINT('Origin',(-6.,11.,3.));
#811=CARTESIAN_POINT('',(-7.,11.,-6.));
#812=CARTESIAN_POINT('',(-7.,11.,3.));
#813=CARTESIAN_POINT('',(-6.,10.,-5.));
#814=CARTESIAN_POINT('',(-6.,10.,3.));
#815=CARTESIAN_POINT('Origin',(-6.,11.,-5.));
#816=CARTESIAN_POINT('Origin',(-3.5,11.,-5.));
#817=CARTESIAN_POINT('',(7.,11.,-6.));
#818=CARTESIAN_POINT('',(-3.5,11.,-6.));
#819=CARTESIAN_POINT('',(6.,10.,-5.));
#820=CARTESIAN_POINT('',(-3.5,10.,-5.));
#821=CARTESIAN_POINT('Origin',(6.,11.,-5.));
#822=CARTESIAN_POINT('Origin',(6.,11.,-3.));
#823=CARTESIAN_POINT('',(7.,11.,-3.));
#824=CARTESIAN_POINT('',(6.,10.,-3.));
#825=CARTESIAN_POINT('Origin',(7.,30.,-6.));
#826=CARTESIAN_POINT('',(7.,24.7979589711327,6.));
#827=CARTESIAN_POINT('',(7.,30.,6.));
#828=CARTESIAN_POINT('',(7.,24.7979589711327,-6.));
#829=CARTESIAN_POINT('Origin',(7.,15.,0.));
#830=CARTESIAN_POINT('',(7.,30.,-6.));
#831=CARTESIAN_POINT('',(7.,23.0000004470348,2.));
#832=CARTESIAN_POINT('Origin',(7.,23.0000004470348,1.07852076885685E-31));
#833=CARTESIAN_POINT('Origin',(7.,30.,6.));
#834=CARTESIAN_POINT('',(-7.,24.7979589711327,6.));
#835=CARTESIAN_POINT('',(-7.,30.,6.));
#836=CARTESIAN_POINT('',(-7.0035804020667,24.8969622385754,6.));
#837=CARTESIAN_POINT('Ctrl Pts',(-7.0035804020667,24.8969622385754,6.));
#838=CARTESIAN_POINT('Ctrl Pts',(-7.00112595036135,24.8631344068556,6.));
#839=CARTESIAN_POINT('Ctrl Pts',(-7.,24.8299194363859,6.));
#840=CARTESIAN_POINT('Ctrl Pts',(-7.,24.7979589711327,6.));
#841=CARTESIAN_POINT('',(7.0035804020667,24.8969622385754,6.));
#842=CARTESIAN_POINT('Origin',(0.,15.,6.));
#843=CARTESIAN_POINT('Ctrl Pts',(7.,24.7979589711327,6.));
#844=CARTESIAN_POINT('Ctrl Pts',(7.,24.8299194363859,6.));
#845=CARTESIAN_POINT('Ctrl Pts',(7.00112595036135,24.8631344068556,6.));
#846=CARTESIAN_POINT('Ctrl Pts',(7.0035804020667,24.8969622385754,6.));
#847=CARTESIAN_POINT('Origin',(0.,10.,0.));
#848=CARTESIAN_POINT('Origin',(8.,15.,0.));
#849=CARTESIAN_POINT('',(8.57142857142857,24.7611788347975,7.5));
#850=CARTESIAN_POINT('',(8.57142857142857,24.7611788347975,-7.5));
#851=CARTESIAN_POINT('Origin',(8.57142857142857,15.,0.));
#852=CARTESIAN_POINT('',(7.0035804020667,24.8969622385754,-6.));
#853=CARTESIAN_POINT('Ctrl Pts',(8.57142857142857,24.7611788347975,-7.5));
#854=CARTESIAN_POINT('Ctrl Pts',(8.5701714519123,24.7633020414435,-7.49867337471524));
#855=CARTESIAN_POINT('Ctrl Pts',(8.56891203179065,24.7654226006337,-7.49734468425162));
#856=CARTESIAN_POINT('Ctrl Pts',(8.48694042570222,24.9030188323304,-7.41088804326996));
#857=CARTESIAN_POINT('Ctrl Pts',(8.39634844750279,25.0284224411489,-7.31681574192117));
#858=CARTESIAN_POINT('Ctrl Pts',(8.20596027114716,25.2398282381317,-7.12209365415924));
#859=CARTESIAN_POINT('Ctrl Pts',(8.10603565579073,25.3294898588844,-7.02111024952833));
#860=CARTESIAN_POINT('Ctrl Pts',(7.86195662695116,25.4912124363806,-6.77790512174806));
#861=CARTESIAN_POINT('Ctrl Pts',(7.72558229112813,25.5417049807504,-6.64443799094487));
#862=CARTESIAN_POINT('Ctrl Pts',(7.50640504692963,25.5591235335842,-6.43414249369652));
#863=CARTESIAN_POINT('Ctrl Pts',(7.41971464912515,25.5443531322564,-6.35239631881263));
#864=CARTESIAN_POINT('Ctrl Pts',(7.28198776801237,25.4803437378933,-6.22531994622709));
#865=CARTESIAN_POINT('Ctrl Pts',(7.22547121865976,25.4382410593321,-6.17426511409468));
#866=CARTESIAN_POINT('Ctrl Pts',(7.13157152775366,25.3282559223423,-6.09223512859597));
#867=CARTESIAN_POINT('Ctrl Pts',(7.09514933064543,25.2656829870971,-6.06180775726197));
#868=CARTESIAN_POINT('Ctrl Pts',(7.0364553900169,25.1162848420551,-6.0161581351612));
#869=CARTESIAN_POINT('Ctrl Pts',(7.01749311978686,25.0311759716688,-6.00397599401887));
#870=CARTESIAN_POINT('Ctrl Pts',(7.00614210443435,24.9283269839399,-6.00027228080725));
#871=CARTESIAN_POINT('Ctrl Pts',(7.00471960560132,24.9126630101075,-6.00000000000003));
#872=CARTESIAN_POINT('Ctrl Pts',(7.00358040206689,24.896962238578,-6.));
#873=CARTESIAN_POINT('Ctrl Pts',(7.0035804020667,24.8969622385754,-6.));
#874=CARTESIAN_POINT('Ctrl Pts',(7.00112595036135,24.8631344068556,-6.));
#875=CARTESIAN_POINT('Ctrl Pts',(7.,24.8299194363859,-6.));
#876=CARTESIAN_POINT('Ctrl Pts',(7.,24.7979589711327,-6.));
#877=CARTESIAN_POINT('Ctrl Pts',(7.0035804020667,24.8969622385754,6.));
#878=CARTESIAN_POINT('Ctrl Pts',(7.01081167356755,24.9966253262283,6.));
#879=CARTESIAN_POINT('Ctrl Pts',(7.0294517624128,25.0946904764529,6.01097330118818));
#880=CARTESIAN_POINT('Ctrl Pts',(7.09105767315233,25.2579715026867,6.05843724308617));
#881=CARTESIAN_POINT('Ctrl Pts',(7.12772347362113,25.3227763615292,6.08894134234097));
#882=CARTESIAN_POINT('Ctrl Pts',(7.21848366743404,25.4309614313709,6.16809770826594));
#883=CARTESIAN_POINT('Ctrl Pts',(7.27020272732983,25.4716957582945,6.21466476309588));
#884=CARTESIAN_POINT('Ctrl Pts',(7.39523745218257,25.536004126698,6.32960334398123));
#885=CARTESIAN_POINT('Ctrl Pts',(7.46884063780232,25.5519757719493,6.39877221939946));
#886=CARTESIAN_POINT('Ctrl Pts',(7.6413552365693,25.5554774633409,6.56315410281714));
#887=CARTESIAN_POINT('Ctrl Pts',(7.74851831754607,25.5309865421405,6.66704607904592));
#888=CARTESIAN_POINT('Ctrl Pts',(7.99143727604541,25.4175060154625,6.90617435423028));
#889=CARTESIAN_POINT('Ctrl Pts',(8.11659335005768,25.3226845852111,7.03163595312653));
#890=CARTESIAN_POINT('Ctrl Pts',(8.35516239927035,25.0843034771082,7.27410677765292));
#891=CARTESIAN_POINT('Ctrl Pts',(8.46889456797394,24.9333103215285,7.39185481559176));
#892=CARTESIAN_POINT('Ctrl Pts',(8.56891203179049,24.7654226006344,7.49734468425081));
#893=CARTESIAN_POINT('Ctrl Pts',(8.57017145191254,24.7633020414431,7.49867337471549));
#894=CARTESIAN_POINT('Ctrl Pts',(8.57142857142857,24.7611788347975,7.5));
#895=CARTESIAN_POINT('Origin',(0.,15.,-7.));
#896=CARTESIAN_POINT('',(-8.57142857142857,24.7611788347975,-7.5));
#897=CARTESIAN_POINT('Origin',(0.,15.,-7.5));
#898=CARTESIAN_POINT('',(-7.0035804020667,24.8969622385754,-6.));
#899=CARTESIAN_POINT('Ctrl Pts',(-8.57142857142857,24.7611788347975,-7.5));
#900=CARTESIAN_POINT('Ctrl Pts',(-8.5701705552135,24.7633035559191,-7.49867242843823));
#901=CARTESIAN_POINT('Ctrl Pts',(-8.56891023510873,24.7654256258088,-7.49734278874898));
#902=CARTESIAN_POINT('Ctrl Pts',(-8.424367811544,25.0080511695802,-7.34489185885315));
#903=CARTESIAN_POINT('Ctrl Pts',(-8.2585521514907,25.2026379079071,-7.17463164701932));
#904=CARTESIAN_POINT('Ctrl Pts',(-7.93894180651366,25.4525632453057,-6.85387285660619));
#905=CARTESIAN_POINT('Ctrl Pts',(-7.79270364666596,25.5213026144223,-6.70982815671184));
#906=CARTESIAN_POINT('Ctrl Pts',(-7.55616139506318,25.5616886258829,-6.48145521616713));
#907=CARTESIAN_POINT('Ctrl Pts',(-7.46243559930754,25.5542486578072,-6.39249783154337));
#908=CARTESIAN_POINT('Ctrl Pts',(-7.31452271065328,25.4999269655326,-6.25503251060786));
#909=CARTESIAN_POINT('Ctrl Pts',(-7.25374209155235,25.4618012487626,-6.19962862668568));
#910=CARTESIAN_POINT('Ctrl Pts',(-7.15252916149147,25.3579161714519,-6.11018700055174));
#911=CARTESIAN_POINT('Ctrl Pts',(-7.11281835630006,25.2981779739264,-6.07641926202086));
#912=CARTESIAN_POINT('Ctrl Pts',(-7.04863482605291,25.1555113698781,-6.02505776999866));
#913=CARTESIAN_POINT('Ctrl Pts',(-7.02678312195329,25.075019378248,-6.00979690248891));
#914=CARTESIAN_POINT('Ctrl Pts',(-7.00932991251219,24.9601717676548,-6.00110753529731));
#915=CARTESIAN_POINT('Ctrl Pts',(-7.00587858151509,24.9286362892284,-6.00000000000003));
#916=CARTESIAN_POINT('Ctrl Pts',(-7.00358040206679,24.8969622385766,-6.));
#917=CARTESIAN_POINT('Origin',(0.,15.,-6.));
#918=CARTESIAN_POINT('Origin',(-8.,15.,0.));
#919=CARTESIAN_POINT('',(-8.57142857142857,24.7611788347975,7.5));
#920=CARTESIAN_POINT('Origin',(-8.57142857142857,15.,0.));
#921=CARTESIAN_POINT('Ctrl Pts',(-8.57142857142857,24.7611788347975,7.5));
#922=CARTESIAN_POINT('Ctrl Pts',(-8.5701714519123,24.7633020414435,7.49867337471524));
#923=CARTESIAN_POINT('Ctrl Pts',(-8.56891203179065,24.7654226006337,7.49734468425162));
#924=CARTESIAN_POINT('Ctrl Pts',(-8.48694042570222,24.9030188323304,7.41088804326996));
#925=CARTESIAN_POINT('Ctrl Pts',(-8.39634844750279,25.0284224411489,7.31681574192117));
#926=CARTESIAN_POINT('Ctrl Pts',(-8.20596027114716,25.2398282381317,7.12209365415924));
#927=CARTESIAN_POINT('Ctrl Pts',(-8.10603565579073,25.3294898588844,7.02111024952833));
#928=CARTESIAN_POINT('Ctrl Pts',(-7.86195662695116,25.4912124363806,6.77790512174806));
#929=CARTESIAN_POINT('Ctrl Pts',(-7.72558229112813,25.5417049807504,6.64443799094487));
#930=CARTESIAN_POINT('Ctrl Pts',(-7.50640504692963,25.5591235335842,6.43414249369652));
#931=CARTESIAN_POINT('Ctrl Pts',(-7.41971464912515,25.5443531322564,6.35239631881263));
#932=CARTESIAN_POINT('Ctrl Pts',(-7.28198776801237,25.4803437378933,6.22531994622709));
#933=CARTESIAN_POINT('Ctrl Pts',(-7.22547121865976,25.4382410593321,6.17426511409468));
#934=CARTESIAN_POINT('Ctrl Pts',(-7.13157152775366,25.3282559223423,6.09223512859597));
#935=CARTESIAN_POINT('Ctrl Pts',(-7.09514933064543,25.2656829870971,6.06180775726197));
#936=CARTESIAN_POINT('Ctrl Pts',(-7.0364553900169,25.1162848420551,6.0161581351612));
#937=CARTESIAN_POINT('Ctrl Pts',(-7.01749311978686,25.0311759716688,6.00397599401887));
#938=CARTESIAN_POINT('Ctrl Pts',(-7.00614210443435,24.9283269839399,6.00027228080725));
#939=CARTESIAN_POINT('Ctrl Pts',(-7.00471960560132,24.9126630101075,6.00000000000003));
#940=CARTESIAN_POINT('Ctrl Pts',(-7.00358040206689,24.896962238578,6.));
#941=CARTESIAN_POINT('',(-7.,24.7979589711327,-6.));
#942=CARTESIAN_POINT('Origin',(-7.,15.,0.));
#943=CARTESIAN_POINT('Ctrl Pts',(-7.,24.7979589711327,-6.));
#944=CARTESIAN_POINT('Ctrl Pts',(-7.,24.8299194363859,-6.));
#945=CARTESIAN_POINT('Ctrl Pts',(-7.00112595036135,24.8631344068556,-6.));
#946=CARTESIAN_POINT('Ctrl Pts',(-7.0035804020667,24.8969622385754,-6.));
#947=CARTESIAN_POINT('Origin',(0.,15.,7.));
#948=CARTESIAN_POINT('Origin',(0.,15.,7.5));
#949=CARTESIAN_POINT('Origin',(-7.,30.,-6.));
#950=CARTESIAN_POINT('',(-7.,30.,-6.));
#951=CARTESIAN_POINT('Origin',(-7.,30.,6.));
#952=CARTESIAN_POINT('Origin',(0.,15.,0.));
#953=CARTESIAN_POINT('',(-9.18485099360515E-16,15.,15.));
#954=CARTESIAN_POINT('',(-9.18485099360515E-16,15.,-15.));
#955=CARTESIAN_POINT('Origin',(0.,15.,0.));
#956=CARTESIAN_POINT('',(12.3288277158634,23.0000004470348,-3.));
#957=CARTESIAN_POINT('',(12.3288277158634,23.0000004470348,3.));
#958=CARTESIAN_POINT('Ctrl Pts',(12.3288277158634,23.0000004470348,-3.));
#959=CARTESIAN_POINT('Ctrl Pts',(12.5717549088006,22.6256245293021,-3.));
#960=CARTESIAN_POINT('Ctrl Pts',(12.8279726971227,22.2186109956862,-2.92590278393585));
#961=CARTESIAN_POINT('Ctrl Pts',(13.2955493463495,21.4551890106819,-2.60481050008772));
#962=CARTESIAN_POINT('Ctrl Pts',(13.5071420669131,21.0990437090376,-2.35753048088957));
#963=CARTESIAN_POINT('Ctrl Pts',(13.8120482670857,20.5779122477255,-1.80370811659597));
#964=CARTESIAN_POINT('Ctrl Pts',(13.9353696405397,20.3632677922326,-1.48204056444182));
#965=CARTESIAN_POINT('Ctrl Pts',(14.1003942140178,20.0741058027127,-0.766776353638501));
#966=CARTESIAN_POINT('Ctrl Pts',(14.1421354656803,20.0000004470348,-0.373021910221626));
#967=CARTESIAN_POINT('Ctrl Pts',(14.1421354656803,20.0000004470348,0.373021910221625));
#968=CARTESIAN_POINT('Ctrl Pts',(14.1003942140178,20.0741058027127,0.7667763536385));
#969=CARTESIAN_POINT('Ctrl Pts',(13.9353696405397,20.3632677922326,1.48204056444182));
#970=CARTESIAN_POINT('Ctrl Pts',(13.8120482670857,20.5779122477255,1.80370811659597));
#971=CARTESIAN_POINT('Ctrl Pts',(13.5071420669131,21.0990437090376,2.35753048088957));
#972=CARTESIAN_POINT('Ctrl Pts',(13.2955493463495,21.4551890106819,2.60481050008772));
#973=CARTESIAN_POINT('Ctrl Pts',(12.8279726971227,22.2186109956862,2.92590278393585));
#974=CARTESIAN_POINT('Ctrl Pts',(12.5717549088006,22.6256245293021,3.));
#975=CARTESIAN_POINT('Ctrl Pts',(12.3288277158634,23.0000004470348,3.));
#976=CARTESIAN_POINT('Ctrl Pts',(12.3288277158634,23.0000004470348,3.));
#977=CARTESIAN_POINT('Ctrl Pts',(12.076493695478,23.3888732583278,3.));
#978=CARTESIAN_POINT('Ctrl Pts',(11.7991235952037,23.8032148082252,2.92047634344301));
#979=CARTESIAN_POINT('Ctrl Pts',(11.2671208818422,24.5701714880623,2.59015354183795));
#980=CARTESIAN_POINT('Ctrl Pts',(11.0125458337456,24.9229458172492,2.33963140019854));
#981=CARTESIAN_POINT('Ctrl Pts',(10.6357949562781,25.4317694190655,1.78863972836436));
#982=CARTESIAN_POINT('Ctrl Pts',(10.4767960744817,25.6405489099555,1.47390240434287));
#983=CARTESIAN_POINT('Ctrl Pts',(10.2573182701443,25.9249664772989,0.767759574228183));
#984=CARTESIAN_POINT('Ctrl Pts',(10.1980385449965,26.0000004470348,0.375738795472881));
#985=CARTESIAN_POINT('Ctrl Pts',(10.1980385449965,26.0000004470348,-0.37573879547288));
#986=CARTESIAN_POINT('Ctrl Pts',(10.2573182701443,25.9249664772989,-0.767759574228182));
#987=CARTESIAN_POINT('Ctrl Pts',(10.4767960744817,25.6405489099555,-1.47390240434287));
#988=CARTESIAN_POINT('Ctrl Pts',(10.6357949562781,25.4317694190655,-1.78863972836436));
#989=CARTESIAN_POINT('Ctrl Pts',(11.0125458337456,24.9229458172492,-2.33963140019854));
#990=CARTESIAN_POINT('Ctrl Pts',(11.2671208818422,24.5701714880623,-2.59015354183795));
#991=CARTESIAN_POINT('Ctrl Pts',(11.7991235952037,23.8032148082252,-2.92047634344301));
#992=CARTESIAN_POINT('Ctrl Pts',(12.076493695478,23.3888732583278,-3.));
#993=CARTESIAN_POINT('Ctrl Pts',(12.3288277158634,23.0000004470348,-3.));
#994=CARTESIAN_POINT('',(-10.0696041035398,26.1176919006588,-1.39116804370956E-15));
#995=CARTESIAN_POINT('',(-11.2400382483661,24.5588461738468,2.7));
#996=CARTESIAN_POINT('Origin',(0.,23.3382689254941,4.81410180870951));
#997=CARTESIAN_POINT('',(-13.2748456062642,21.4411547202228,2.7));
#998=CARTESIAN_POINT('Origin',(0.,15.,2.7));
#999=CARTESIAN_POINT('',(-14.1831963567053,19.8823089934109,1.73302372080553E-16));
#1000=CARTESIAN_POINT('Origin',(0.,18.6617317450581,-2.11410180870951));
#1001=CARTESIAN_POINT('',(-13.2748456062642,21.4411547202228,-2.7));
#1002=CARTESIAN_POINT('Origin',(0.,18.6617317450581,2.11410180870952));
#1003=CARTESIAN_POINT('',(-11.2400382483661,24.5588461738468,-2.7));
#1004=CARTESIAN_POINT('Origin',(0.,15.,-2.7));
#1005=CARTESIAN_POINT('Origin',(0.,23.3382689254941,-4.81410180870952));
#1006=CARTESIAN_POINT('Origin',(-15.,19.8823089934109,1.73302372080553E-16));
#1007=CARTESIAN_POINT('',(-8.,19.8823089934109,0.));
#1008=CARTESIAN_POINT('',(-15.,19.8823089934109,1.73302372080553E-16));
#1009=CARTESIAN_POINT('',(-8.,21.4411547202228,-2.7));
#1010=CARTESIAN_POINT('',(-8.,19.8823089934109,1.73302372080553E-16));
#1011=CARTESIAN_POINT('',(-15.,21.4411547202228,-2.7));
#1012=CARTESIAN_POINT('Origin',(-15.,21.4411547202228,-2.7));
#1013=CARTESIAN_POINT('',(-8.,24.5588461738468,-2.7));
#1014=CARTESIAN_POINT('',(-8.,21.4411547202228,-2.7));
#1015=CARTESIAN_POINT('',(-15.,24.5588461738468,-2.7));
#1016=CARTESIAN_POINT('Origin',(-15.,24.5588461738468,-2.7));
#1017=CARTESIAN_POINT('',(-8.,26.1176919006588,-1.66533453693773E-15));
#1018=CARTESIAN_POINT('',(-8.,24.5588461738468,-2.7));
#1019=CARTESIAN_POINT('',(-15.,26.1176919006588,-1.39116804370956E-15));
#1020=CARTESIAN_POINT('Origin',(-15.,26.1176919006588,-1.39116804370956E-15));
#1021=CARTESIAN_POINT('',(-8.,24.5588461738468,2.7));
#1022=CARTESIAN_POINT('',(-8.,26.1176919006588,-1.39116804370956E-15));
#1023=CARTESIAN_POINT('',(-15.,24.5588461738468,2.7));
#1024=CARTESIAN_POINT('Origin',(-15.,21.4411547202228,2.7));
#1025=CARTESIAN_POINT('',(-8.,21.4411547202228,2.7));
#1026=CARTESIAN_POINT('',(-15.,21.4411547202228,2.7));
#1027=CARTESIAN_POINT('',(-8.,21.4411547202228,2.7));
#1028=CARTESIAN_POINT('Origin',(-15.,24.5588461738468,2.7));
#1029=CARTESIAN_POINT('',(-8.,24.5588461738468,2.7));
#1030=CARTESIAN_POINT('Origin',(-8.,23.0000004470348,0.));
#1031=CARTESIAN_POINT('Origin',(15.,23.0000004470348,1.07852076885685E-31));
#1032=CARTESIAN_POINT('',(10.,23.0000004470348,2.));
#1033=CARTESIAN_POINT('Origin',(10.,23.0000004470348,1.07852076885685E-31));
#1034=CARTESIAN_POINT('',(15.,23.0000004470348,2.));
#1035=CARTESIAN_POINT('Origin',(15.,23.0000004470348,1.07852076885685E-31));
#1036=CARTESIAN_POINT('',(10.,23.0000004470348,3.));
#1037=CARTESIAN_POINT('',(15.,23.0000004470348,3.));
#1038=CARTESIAN_POINT('Origin',(10.,23.0000004470348,1.07852076885685E-31));
#1039=CARTESIAN_POINT('Origin',(10.,23.0000004470348,0.));
#1040=UNCERTAINTY_MEASURE_WITH_UNIT(LENGTH_MEASURE(0.01),#1044,
'DISTANCE_ACCURACY_VALUE',
'Maximum model space distance between geometric entities at asserted c
onnectivities');
#1041=UNCERTAINTY_MEASURE_WITH_UNIT(LENGTH_MEASURE(0.01),#1044,
'DISTANCE_ACCURACY_VALUE',
'Maximum model space distance between geometric entities at asserted c
onnectivities');
#1042=(
GEOMETRIC_REPRESENTATION_CONTEXT(3)
GLOBAL_UNCERTAINTY_ASSIGNED_CONTEXT((#1040))
GLOBAL_UNIT_ASSIGNED_CONTEXT((#1044,#1046,#1047))
REPRESENTATION_CONTEXT('','3D')
);
#1043=(
GEOMETRIC_REPRESENTATION_CONTEXT(3)
GLOBAL_UNCERTAINTY_ASSIGNED_CONTEXT((#1041))
GLOBAL_UNIT_ASSIGNED_CONTEXT((#1044,#1046,#1047))
REPRESENTATION_CONTEXT('','3D')
);
#1044=(
LENGTH_UNIT()
NAMED_UNIT(*)
SI_UNIT(.MILLI.,.METRE.)
);
#1045=(
LENGTH_UNIT()
NAMED_UNIT(*)
SI_UNIT($,.METRE.)
);
#1046=(
NAMED_UNIT(*)
PLANE_ANGLE_UNIT()
SI_UNIT($,.RADIAN.)
);
#1047=(
NAMED_UNIT(*)
SI_UNIT($,.STERADIAN.)
SOLID_ANGLE_UNIT()
);
#1048=SHAPE_DEFINITION_REPRESENTATION(#1049,#1050);
#1049=PRODUCT_DEFINITION_SHAPE('',$,#1052);
#1050=SHAPE_REPRESENTATION('',(#561),#1042);
#1051=PRODUCT_DEFINITION_CONTEXT('part definition',#1056,'design');
#1052=PRODUCT_DEFINITION('2026-05-05-17-28-38-709','Embouts pattes',#1053,
#1051);
#1053=PRODUCT_DEFINITION_FORMATION('',$,#1058);
#1054=PRODUCT_RELATED_PRODUCT_CATEGORY('Embouts pattes',
'Embouts pattes',(#1058));
#1055=APPLICATION_PROTOCOL_DEFINITION('international standard',
'automotive_design',2009,#1056);
#1056=APPLICATION_CONTEXT(
'Core Data for Automotive Mechanical Design Process');
#1057=PRODUCT_CONTEXT('part definition',#1056,'mechanical');
#1058=PRODUCT('2026-05-05-17-28-38-709','Embouts pattes',$,(#1057));
#1059=PRESENTATION_STYLE_ASSIGNMENT((#1060));
#1060=SURFACE_STYLE_USAGE(.BOTH.,#1061);
#1061=SURFACE_SIDE_STYLE('',(#1062));
#1062=SURFACE_STYLE_FILL_AREA(#1063);
#1063=FILL_AREA_STYLE('Acier - Satin\X\E9',(#1064));
#1064=FILL_AREA_STYLE_COLOUR('Acier - Satin\X\E9',#1065);
#1065=COLOUR_RGB('Acier - Satin\X\E9',0.627450980392157,0.627450980392157,
0.627450980392157);
ENDSEC;
END-ISO-10303-21;
